<svg xmlns="http://www.w3.org/2000/svg" xmlns:xlink="http://www.w3.org/1999/xlink" id="Layer_1" viewBox="0 0 216 216"><defs><linearGradient id="New_Gradient_Swatch_3" x1="28.01" x2="96.25" y1="31.57" y2="31.57" gradientUnits="userSpaceOnUse"><stop offset=".17" stop-color="#198ac4"/><stop offset=".53" stop-color="#91c124"/></linearGradient><linearGradient xlink:href="#New_Gradient_Swatch_3" id="New_Gradient_Swatch_3-2" x1="35.4" x2="103.84" y1="9.7" y2="9.7"/><linearGradient xlink:href="#New_Gradient_Swatch_3" id="New_Gradient_Swatch_3-3" x1="22.73" x2="99.93" y1="20.2" y2="20.2"/><linearGradient xlink:href="#New_Gradient_Swatch_3" id="New_Gradient_Swatch_3-4" x1="78.38" x2="162.17" y1="110.63" y2="110.63"/><style>.cls-4{fill:#fff}</style></defs><path d="M88.76 69.16c6.03 3.49 17.79 6.72 31.31 6.72M106.86 28.91c3.13 1.33 7.87 2.18 13.17 2.18 2.55 0 4.97-.2 7.14-.55" class="cls-4"/><path d="M93.28 24.05 28.92 36.88c-.59.12-.99.68-.9 1.29.1.62.68 1.04 1.29.94l64.84-10.14c3.32-.62 2.42-5.49-.88-4.92Z" style="fill:url(#New_Gradient_Swatch_3)"/><path d="m36.48 4.72 64.4 12.61c3.32.55 4.16-4.31.88-4.92L36.95 2.04c-1.76-.25-2.17 2.32-.48 2.67Z" style="fill:url(#New_Gradient_Swatch_3-2)"/><path d="m97.42 17.7-73.39 1.18c-.71.01-1.29.58-1.3 1.3-.01.73.57 1.33 1.3 1.34l73.39 1.18c3.37-.04 3.33-4.97 0-5Z" style="fill:url(#New_Gradient_Swatch_3-3)"/><path d="M161.31 193.23c-.23-.73-.56-1.42-.97-2.07V70.46c0-.17 0-.34-.02-.52l-.73-9.85c.68-1.59 1.27-3.56 1.27-5.77 0-4.09-1.09-6.34-2.27-8.18l-.06-.09c-1.57-3.09-4.57-5.58-9.11-7.57-1.39-2.91-3.18-5.48-5.29-7.6-.17-.96-.45-1.88-.83-2.74-1.41-3.21-4.47-5.62-9.12-7.2v-1.37c0-2.09-.94-4.08-2.55-5.41l-8.66-7.13a7.006 7.006 0 0 0-4.45-1.59h-4.44c-3.87 0-7 3.13-7 7v8.13c-4.4 1.3-8.56 3.58-10.3 7.57-.52 1.15-.85 2.43-.97 3.75-1.65 1.86-3.08 4-4.24 6.36-4.89 2.04-8.07 4.65-9.68 7.91l-.09.17c-1.02 1.8-1.97 4.02-1.97 7.97 0 3.36 1.19 6.08 1.88 7.46l-.6 8.16a8.7 8.7 0 0 0-.02.52v119.51a9.52 9.52 0 0 0-1.83 3.26c-.56 1.65-.86 3.46-.86 5.26 0 1.97.35 3.94 1 5.68.12.31.25.61.41.89 4.83 9.3 27.3 10.71 40.49 10.71s35.71-1.42 40.5-10.75c.15-.28.28-.56.39-.86.65-1.74 1-3.7 1-5.68 0-1.81-.29-3.62-.85-5.26ZM150.14 49.6c-.52.64-1.35 1.29-2.47 1.92-.09-1.41-.26-2.8-.53-4.14 1.38.72 2.39 1.47 3 2.22Zm-33.79-30.73c-.1 0-.19.02-.29.03v-4.44h1.73l7.38 6.07v8.25c-.7.08-1.41.14-2.13.19-.1 0-.21.01-.31.02-.59.04-1.19.06-1.79.07h-.5c-.66 0-1.32 0-1.97-.02h-.16c-.72-.03-1.43-.07-2.14-.13-.04 0-.07 0-.1-.01v-4.29c.1 0 .19.03.29.03 1.6 0 2.89-1.29 2.89-2.89s-1.29-2.89-2.89-2.89ZM105 31.79c.14-.33.51-.68 1.06-1.04 2.08.89 4.72 1.54 7.65 1.93.03 0 .05.01.08.02.04 0 .09 0 .13.01.86.11 1.76.19 2.66.26.2.01.41.03.61.04.93.05 1.87.09 2.82.09 2.6 0 5.11-.19 7.46-.57.36-.06.68-.22.95-.44 0 0 .01 0 .02-.01.08-.07.15-.14.22-.21.01-.02.03-.03.04-.05.06-.07.11-.14.16-.22.02-.03.03-.05.05-.08.04-.07.08-.15.11-.23.02-.04.03-.08.04-.12.02-.07.05-.15.06-.22.01-.05.02-.1.02-.15 0-.07.02-.14.02-.21v-1.67c3.38.81 5.5 1.98 5.91 2.93.16.34.25.8.25 1.27s-.1.97-.28 1.34c-.02.05-.05.09-.08.14v.02c-1.08 1.54-6.42 3.7-14.94 3.7s-14.29-2.28-15.03-3.89c-.17-.35-.26-.81-.26-1.3s.09-.92.27-1.32Zm-2.38 5.99c3.22 3.1 10.66 4.51 17.41 4.51 6.39 0 14.71-1.31 17.82-4.93 3.53 3.63 5.75 9.35 5.88 15.53-5.91 2.13-14.65 3.39-23.75 3.39s-16.92-1.11-22.84-3.06c.06-6.06 2.13-11.71 5.49-15.43Zm-8.82 9.35c-.31 1.49-.53 3.03-.61 4.61-1.31-.7-2.27-1.43-2.85-2.16.66-.83 1.83-1.67 3.46-2.46Zm-4.97 6.53c5.33 4.19 17.28 6.88 31.41 6.88s26.38-2.78 31.6-7.05c.02.25.03.52.03.84 0 1.4-.92 3.06-1.36 3.86v.02c-.1.16-.3.45-.3.45-2.64 3.4-14.04 7.02-29.97 7.02s-28.44-3.89-30.3-7.53c-.52-.98-1.13-2.3-1.13-3.81 0-.24 0-.46.02-.67Zm31.23 20.22c-13.7 0-24.45-3.26-29.79-6.17l.28-3.75c6.6 3.9 18.92 5.71 29.68 5.71 13.36 0 24.9-2.46 30.58-6.3l.53 7.16v124.26c-4.34 1.91-15.8 3.7-31.07 3.7s-25.44-1.62-30.21-3.35V72.09c6.18 2.89 16.88 5.79 30 5.79 1.1 0 2-.9 2-2s-.9-2-2-2Zm32.73 127s-.03.06-.04.1c-.83 2.08-12.39 5.8-32.48 5.8s-31.64-3.72-32.47-5.8c-.01-.04-.03-.07-.05-.11-.25-.71-.37-1.53-.37-2.37 0-.05.01-.09.01-.13 5.49 2.51 18.34 4.13 32.89 4.13s27.35-1.64 32.88-4.14c0 .05.01.09.01.14 0 .86-.13 1.68-.38 2.39Z" style="fill:url(#New_Gradient_Swatch_3-4)"/></svg>