<svg xmlns="http://www.w3.org/2000/svg" xmlns:xlink="http://www.w3.org/1999/xlink" width="630" zoomAndPan="magnify" viewBox="0 0 473.03998 330" height="430" preserveAspectRatio="xMidYMid meet" version="1.0"><defs><clipPath id="b33c07b3bb"><path d="M 210 96.886719 L 261 96.886719 L 261 147 L 210 147 Z M 210 96.886719 " clip-rule="nonzero"/></clipPath><clipPath id="476491da53"><path d="M 234 96.886719 L 238 96.886719 L 238 147 L 234 147 Z M 234 96.886719 " clip-rule="nonzero"/></clipPath><clipPath id="6db10cea20"><path d="M 178.320312 143 L 212 143 L 212 189 L 178.320312 189 Z M 178.320312 143 " clip-rule="nonzero"/></clipPath><clipPath id="dbd0fe6cda"><path d="M 260 143 L 293.589844 143 L 293.589844 189 L 260 189 Z M 260 143 " clip-rule="nonzero"/></clipPath><clipPath id="e8b0e27cfc"><path d="M 231 211 L 247 211 L 247 225.625 L 231 225.625 Z M 231 211 " clip-rule="nonzero"/></clipPath><clipPath id="b1207a743b"><path d="M 269 143 L 293.589844 143 L 293.589844 182 L 269 182 Z M 269 143 " clip-rule="nonzero"/></clipPath><clipPath id="07d4f760ee"><path d="M 178.320312 143 L 202 143 L 202 182 L 178.320312 182 Z M 178.320312 143 " clip-rule="nonzero"/></clipPath></defs><g clip-path="url(#b33c07b3bb)"><path fill="#ffffff" d="M 235.769531 146.710938 C 222.042969 146.710938 210.875 135.546875 210.875 121.820312 C 210.875 108.09375 222.042969 96.925781 235.769531 96.925781 C 249.492188 96.925781 260.660156 108.09375 260.660156 121.820312 C 260.660156 135.546875 249.492188 146.710938 235.769531 146.710938 Z M 235.769531 99.941406 C 223.707031 99.941406 213.890625 109.757812 213.890625 121.820312 C 213.890625 133.882812 223.707031 143.695312 235.769531 143.695312 C 247.828125 143.695312 257.644531 133.882812 257.644531 121.820312 C 257.644531 109.757812 247.828125 99.941406 235.769531 99.941406 Z M 235.769531 99.941406 " fill-opacity="1" fill-rule="nonzero"/></g><path fill="#ffffff" d="M 255.277344 136.222656 C 254.890625 136.222656 254.507812 136.074219 254.210938 135.777344 L 235.769531 117.339844 L 217.324219 135.777344 C 216.734375 136.367188 215.78125 136.367188 215.1875 135.777344 C 214.601562 135.191406 214.601562 134.234375 215.1875 133.644531 L 234.699219 114.140625 C 235.289062 113.550781 236.242188 113.550781 236.832031 114.140625 L 256.339844 133.644531 C 256.929688 134.234375 256.929688 135.1875 256.339844 135.777344 C 256.046875 136.074219 255.660156 136.222656 255.277344 136.222656 Z M 255.277344 136.222656 " fill-opacity="1" fill-rule="nonzero"/><path fill="#ffffff" d="M 248.660156 142.835938 C 248.273438 142.835938 247.890625 142.6875 247.597656 142.394531 L 235.769531 130.566406 L 223.9375 142.394531 C 223.351562 142.984375 222.394531 142.984375 221.804688 142.394531 C 221.214844 141.808594 221.21875 140.851562 221.804688 140.261719 L 234.699219 127.367188 C 234.984375 127.082031 235.367188 126.921875 235.765625 126.921875 C 236.164062 126.921875 236.550781 127.082031 236.832031 127.367188 L 249.726562 140.261719 C 250.3125 140.851562 250.3125 141.804688 249.726562 142.394531 C 249.429688 142.6875 249.042969 142.835938 248.660156 142.835938 Z M 248.660156 142.835938 " fill-opacity="1" fill-rule="nonzero"/><g clip-path="url(#476491da53)"><path fill="#ffffff" d="M 235.769531 146.714844 C 234.9375 146.714844 234.261719 146.039062 234.261719 145.207031 L 234.261719 98.433594 C 234.261719 97.601562 234.9375 96.925781 235.769531 96.925781 C 236.597656 96.925781 237.277344 97.601562 237.277344 98.433594 L 237.277344 145.207031 C 237.277344 146.039062 236.597656 146.714844 235.769531 146.714844 Z M 235.769531 146.714844 " fill-opacity="1" fill-rule="nonzero"/></g><g clip-path="url(#6db10cea20)"><path fill="#ffffff" d="M 192.121094 188.019531 C 191.890625 188.019531 191.65625 187.96875 191.445312 187.859375 L 179.148438 181.695312 C 178.40625 181.320312 178.101562 180.417969 178.476562 179.671875 L 196.0625 144.585938 C 196.238281 144.230469 196.554688 143.957031 196.933594 143.832031 C 197.3125 143.703125 197.726562 143.734375 198.082031 143.914062 L 210.382812 150.078125 C 211.125 150.449219 211.425781 151.355469 211.054688 152.101562 L 193.46875 187.1875 C 193.292969 187.542969 192.976562 187.8125 192.597656 187.941406 C 192.441406 187.992188 192.285156 188.019531 192.121094 188.019531 Z M 181.851562 179.675781 L 191.453125 184.488281 L 207.6875 152.101562 L 198.082031 147.289062 Z M 181.851562 179.675781 " fill-opacity="1" fill-rule="nonzero"/></g><g clip-path="url(#dbd0fe6cda)"><path fill="#ffffff" d="M 279.40625 188.023438 C 279.246094 188.023438 279.085938 187.996094 278.933594 187.945312 C 278.554688 187.820312 278.238281 187.546875 278.0625 187.1875 L 260.476562 152.101562 C 260.101562 151.359375 260.402344 150.453125 261.148438 150.078125 L 273.445312 143.914062 C 273.804688 143.738281 274.21875 143.707031 274.597656 143.832031 C 274.976562 143.957031 275.292969 144.230469 275.46875 144.589844 L 293.054688 179.675781 C 293.425781 180.417969 293.128906 181.324219 292.382812 181.699219 L 280.082031 187.863281 C 279.871094 187.96875 279.640625 188.023438 279.40625 188.023438 Z M 263.847656 152.101562 L 280.082031 184.488281 L 289.683594 179.675781 L 273.449219 147.289062 Z M 263.847656 152.101562 " fill-opacity="1" fill-rule="nonzero"/></g><path fill="#ffffff" d="M 206.339844 159.652344 C 205.628906 159.652344 204.996094 159.148438 204.859375 158.421875 C 204.707031 157.605469 205.246094 156.816406 206.066406 156.664062 C 209.144531 156.085938 212.0625 154.949219 214.726562 153.277344 C 218.332031 151.019531 222.332031 149.882812 226.296875 149.984375 L 226.8125 149.996094 C 229.925781 150.066406 235.71875 150.191406 239.496094 153.714844 C 240.101562 154.28125 240.136719 155.238281 239.566406 155.84375 C 239 156.453125 238.042969 156.484375 237.4375 155.917969 C 234.503906 153.179688 229.457031 153.070312 226.75 153.011719 C 226.558594 153.003906 226.382812 153.003906 226.21875 152.996094 C 222.847656 152.90625 219.429688 153.890625 216.332031 155.835938 C 213.34375 157.703125 210.078125 158.976562 206.625 159.625 C 206.53125 159.644531 206.4375 159.652344 206.347656 159.652344 Z M 206.339844 159.652344 " fill-opacity="1" fill-rule="nonzero"/><path fill="#ffffff" d="M 200.191406 192.878906 C 199.652344 192.878906 199.132812 192.589844 198.859375 192.082031 L 193.441406 181.949219 C 193.046875 181.214844 193.324219 180.300781 194.058594 179.910156 C 194.792969 179.515625 195.707031 179.792969 196.097656 180.527344 L 201.519531 190.660156 C 201.910156 191.394531 201.632812 192.308594 200.902344 192.699219 C 200.675781 192.820312 200.429688 192.878906 200.191406 192.878906 Z M 200.191406 192.878906 " fill-opacity="1" fill-rule="nonzero"/><path fill="#ffffff" d="M 202.085938 204.410156 C 200.609375 204.410156 199.117188 203.933594 197.867188 202.953125 C 194.90625 200.621094 194.386719 196.316406 196.714844 193.351562 L 199.742188 189.5 C 202.070312 186.539062 206.378906 186.019531 209.34375 188.351562 C 212.308594 190.679688 212.824219 194.988281 210.496094 197.953125 L 207.46875 201.800781 C 206.121094 203.515625 204.113281 204.410156 202.085938 204.410156 Z M 199.730469 200.582031 C 201.390625 201.882812 203.796875 201.59375 205.101562 199.9375 L 208.128906 196.085938 C 209.429688 194.429688 209.140625 192.019531 207.484375 190.71875 C 205.824219 189.414062 203.417969 189.703125 202.113281 191.359375 L 199.089844 195.210938 C 197.785156 196.867188 198.074219 199.277344 199.730469 200.578125 Z M 199.730469 200.582031 " fill-opacity="1" fill-rule="nonzero"/><path fill="#ffffff" d="M 210.574219 212.933594 C 208.925781 212.933594 207.261719 212.402344 205.867188 211.308594 C 202.5625 208.710938 201.984375 203.90625 204.585938 200.597656 C 205.101562 199.941406 206.046875 199.828125 206.699219 200.34375 C 207.355469 200.859375 207.46875 201.804688 206.953125 202.460938 C 205.382812 204.460938 205.730469 207.363281 207.730469 208.9375 C 209.730469 210.507812 212.636719 210.160156 214.207031 208.160156 L 218.367188 202.871094 C 219.9375 200.871094 219.585938 197.964844 217.589844 196.390625 C 215.589844 194.820312 212.683594 195.167969 211.113281 197.167969 C 210.597656 197.824219 209.652344 197.9375 208.996094 197.421875 C 208.339844 196.90625 208.226562 195.957031 208.742188 195.304688 C 211.339844 192 216.144531 191.421875 219.453125 194.019531 C 222.757812 196.621094 223.332031 201.425781 220.734375 204.730469 L 216.578125 210.023438 C 215.074219 211.9375 212.832031 212.933594 210.570312 212.933594 Z M 210.574219 212.933594 " fill-opacity="1" fill-rule="nonzero"/><path fill="#ffffff" d="M 219.203125 219.957031 C 217.746094 219.957031 216.277344 219.488281 215.046875 218.519531 L 214.792969 218.320312 C 213.378906 217.207031 212.484375 215.609375 212.265625 213.824219 C 212.050781 212.035156 212.546875 210.269531 213.660156 208.855469 C 214.175781 208.199219 215.121094 208.085938 215.777344 208.601562 C 216.433594 209.117188 216.546875 210.0625 216.03125 210.71875 C 215.414062 211.5 215.144531 212.472656 215.261719 213.460938 C 215.378906 214.449219 215.878906 215.332031 216.660156 215.949219 L 216.914062 216.148438 C 218.523438 217.417969 220.871094 217.136719 222.140625 215.519531 L 227.394531 208.832031 C 228.664062 207.21875 228.382812 204.871094 226.765625 203.601562 L 226.511719 203.398438 C 225.734375 202.785156 224.757812 202.515625 223.769531 202.632812 C 222.785156 202.75 221.898438 203.25 221.28125 204.03125 C 220.769531 204.683594 219.820312 204.800781 219.164062 204.285156 C 218.511719 203.769531 218.394531 202.820312 218.910156 202.167969 C 220.023438 200.753906 221.621094 199.855469 223.410156 199.640625 C 225.199219 199.425781 226.960938 199.917969 228.378906 201.03125 L 228.632812 201.234375 C 231.550781 203.53125 232.0625 207.777344 229.765625 210.699219 L 224.511719 217.382812 C 223.179688 219.074219 221.199219 219.957031 219.199219 219.957031 Z M 219.203125 219.957031 " fill-opacity="1" fill-rule="nonzero"/><path fill="#ffffff" d="M 229.144531 224.25 C 227.640625 224.25 226.191406 223.75 224.992188 222.808594 C 223.578125 221.695312 222.679688 220.101562 222.464844 218.3125 C 222.25 216.523438 222.742188 214.757812 223.859375 213.339844 C 224.375 212.6875 225.320312 212.570312 225.976562 213.085938 C 226.628906 213.601562 226.746094 214.550781 226.230469 215.203125 C 225.617188 215.984375 225.339844 216.960938 225.460938 217.949219 C 225.582031 218.9375 226.078125 219.820312 226.859375 220.433594 C 227.644531 221.046875 228.617188 221.320312 229.605469 221.203125 C 230.59375 221.085938 231.476562 220.589844 232.089844 219.808594 L 236.199219 214.578125 C 236.8125 213.796875 237.085938 212.824219 236.964844 211.832031 C 236.847656 210.84375 236.351562 209.964844 235.570312 209.351562 C 234.785156 208.734375 233.808594 208.460938 232.824219 208.578125 C 231.835938 208.695312 230.953125 209.195312 230.339844 209.976562 C 229.824219 210.632812 228.878906 210.746094 228.222656 210.230469 C 227.566406 209.71875 227.453125 208.769531 227.96875 208.117188 C 229.078125 206.699219 230.675781 205.800781 232.464844 205.585938 C 234.253906 205.371094 236.019531 205.867188 237.433594 206.980469 C 238.847656 208.089844 239.75 209.6875 239.960938 211.476562 C 240.179688 213.265625 239.683594 215.03125 238.566406 216.445312 L 234.457031 221.671875 C 233.347656 223.089844 231.753906 223.988281 229.960938 224.203125 C 229.6875 224.234375 229.417969 224.253906 229.144531 224.253906 Z M 229.144531 224.25 " fill-opacity="1" fill-rule="nonzero"/><g clip-path="url(#e8b0e27cfc)"><path fill="#ffffff" d="M 239.632812 225.589844 C 238.140625 225.589844 236.640625 225.125 235.363281 224.171875 L 232.371094 221.949219 C 231.703125 221.449219 231.566406 220.503906 232.0625 219.839844 C 232.5625 219.171875 233.507812 219.03125 234.175781 219.53125 L 237.164062 221.753906 C 238.859375 223.011719 241.21875 222.800781 242.660156 221.261719 C 244.136719 219.683594 244.140625 217.207031 242.675781 215.621094 L 241.269531 214.105469 C 240.707031 213.496094 240.742188 212.539062 241.355469 211.972656 C 241.964844 211.410156 242.917969 211.445312 243.484375 212.058594 L 244.890625 213.574219 C 247.425781 216.3125 247.414062 220.59375 244.863281 223.320312 C 243.460938 224.816406 241.558594 225.589844 239.636719 225.589844 Z M 239.632812 225.589844 " fill-opacity="1" fill-rule="nonzero"/></g><path fill="#ffffff" d="M 250.078125 219.601562 C 248.421875 219.601562 246.757812 219.046875 245.394531 217.910156 L 242.8125 215.753906 C 242.171875 215.222656 242.085938 214.269531 242.617188 213.632812 C 243.152344 212.992188 244.101562 212.90625 244.742188 213.4375 L 247.324219 215.59375 C 249.070312 217.046875 251.65625 216.890625 253.214844 215.234375 C 254.824219 213.523438 254.78125 210.886719 253.113281 209.230469 L 242.714844 198.910156 C 242.125 198.324219 242.121094 197.367188 242.707031 196.777344 C 243.292969 196.183594 244.25 196.179688 244.84375 196.769531 L 255.242188 207.089844 C 258.078125 209.902344 258.15625 214.390625 255.414062 217.300781 C 253.980469 218.824219 252.035156 219.601562 250.078125 219.601562 Z M 250.078125 219.601562 " fill-opacity="1" fill-rule="nonzero"/><path fill="#ffffff" d="M 260.546875 212.921875 C 259.109375 212.921875 257.667969 212.492188 256.433594 211.613281 L 253.304688 209.386719 C 252.625 208.90625 252.464844 207.964844 252.949219 207.285156 C 253.429688 206.605469 254.375 206.449219 255.050781 206.929688 L 258.179688 209.15625 C 259.839844 210.339844 262.148438 210.105469 263.546875 208.617188 C 265.078125 206.984375 265.007812 204.390625 263.378906 202.847656 L 250.121094 190.230469 C 249.519531 189.652344 249.496094 188.703125 250.070312 188.097656 C 250.644531 187.496094 251.597656 187.472656 252.199219 188.046875 L 265.457031 200.664062 C 268.277344 203.347656 268.410156 207.84375 265.746094 210.683594 C 264.359375 212.160156 262.460938 212.921875 260.546875 212.921875 Z M 260.546875 212.921875 " fill-opacity="1" fill-rule="nonzero"/><path fill="#ffffff" d="M 268.660156 204.726562 C 267.449219 204.726562 266.222656 204.433594 265.09375 203.828125 L 263.703125 203.082031 C 262.96875 202.6875 262.695312 201.773438 263.089844 201.042969 C 263.480469 200.3125 264.398438 200.03125 265.128906 200.425781 L 266.519531 201.171875 C 268.445312 202.207031 270.835938 201.71875 272.203125 200.011719 C 272.847656 199.207031 273.199219 198.199219 273.199219 197.175781 C 273.199219 195.851562 272.625 194.597656 271.621094 193.730469 L 241.941406 168.511719 C 241.304688 167.96875 241.226562 167.019531 241.765625 166.382812 C 242.304688 165.75 243.257812 165.671875 243.890625 166.210938 L 273.578125 191.4375 C 275.257812 192.882812 276.214844 194.972656 276.214844 197.171875 C 276.214844 198.878906 275.628906 200.554688 274.558594 201.894531 C 273.078125 203.738281 270.886719 204.722656 268.65625 204.722656 Z M 268.660156 204.726562 " fill-opacity="1" fill-rule="nonzero"/><path fill="#ffffff" d="M 271.1875 192.878906 C 270.96875 192.878906 270.746094 192.832031 270.539062 192.730469 C 269.789062 192.371094 269.46875 191.472656 269.828125 190.722656 L 275.023438 179.824219 C 275.382812 179.074219 276.285156 178.753906 277.035156 179.113281 C 277.785156 179.472656 278.105469 180.375 277.746094 181.125 L 272.550781 192.019531 C 272.289062 192.5625 271.75 192.878906 271.1875 192.878906 Z M 271.1875 192.878906 " fill-opacity="1" fill-rule="nonzero"/><path fill="#ffffff" d="M 224.101562 176.871094 C 217.957031 176.871094 213.414062 174.320312 210.25 169.101562 C 209.816406 168.390625 210.046875 167.460938 210.757812 167.03125 C 211.46875 166.601562 212.394531 166.828125 212.828125 167.539062 C 215.730469 172.328125 219.707031 174.257812 225.722656 173.792969 C 229.0625 173.535156 232.292969 172.183594 235.070312 169.878906 C 238.113281 167.355469 241.90625 165.726562 246.664062 164.910156 C 247.484375 164.769531 248.265625 165.320312 248.40625 166.136719 C 248.546875 166.960938 247.996094 167.738281 247.175781 167.878906 C 242.953125 168.609375 239.621094 170.019531 236.992188 172.199219 C 233.734375 174.902344 229.917969 176.492188 225.953125 176.796875 C 225.320312 176.84375 224.703125 176.867188 224.101562 176.867188 Z M 224.101562 176.871094 " fill-opacity="1" fill-rule="nonzero"/><path fill="#ffffff" d="M 213.726562 172.730469 C 213.167969 172.730469 212.632812 172.417969 212.371094 171.878906 C 212.003906 171.132812 212.316406 170.230469 213.066406 169.863281 C 220.09375 166.445312 227.992188 162.207031 233.332031 156.6875 C 233.34375 156.675781 233.359375 156.660156 233.375 156.644531 C 238.09375 152.160156 244.730469 150.214844 251.125 151.445312 C 251.144531 151.453125 251.164062 151.453125 251.183594 151.460938 L 264.492188 154.589844 C 265.304688 154.777344 265.808594 155.589844 265.617188 156.398438 C 265.425781 157.210938 264.617188 157.714844 263.804688 157.523438 L 250.527344 154.402344 C 245.105469 153.371094 239.484375 155.015625 235.476562 158.808594 C 229.816406 164.652344 221.636719 169.046875 214.386719 172.574219 C 214.171875 172.679688 213.949219 172.730469 213.726562 172.730469 Z M 213.726562 172.730469 " fill-opacity="1" fill-rule="nonzero"/><g clip-path="url(#b1207a743b)"><path fill="#ffffff" d="M 291.707031 181.855469 C 291.480469 181.855469 291.253906 181.804688 291.039062 181.699219 L 270.515625 171.460938 C 269.949219 171.175781 269.617188 170.566406 269.691406 169.933594 L 272.628906 145.085938 C 272.726562 144.261719 273.472656 143.667969 274.300781 143.765625 C 275.128906 143.867188 275.71875 144.613281 275.621094 145.441406 L 272.808594 169.234375 L 292.382812 179 C 293.125 179.375 293.429688 180.277344 293.058594 181.023438 C 292.792969 181.550781 292.261719 181.859375 291.707031 181.859375 Z M 291.707031 181.855469 " fill-opacity="1" fill-rule="nonzero"/></g><g clip-path="url(#07d4f760ee)"><path fill="#ffffff" d="M 179.828125 181.855469 C 179.269531 181.855469 178.730469 181.542969 178.46875 181.007812 C 178.105469 180.261719 178.417969 179.359375 179.164062 178.992188 L 198.570312 169.53125 L 195.910156 145.429688 C 195.820312 144.601562 196.414062 143.855469 197.246094 143.765625 C 198.074219 143.675781 198.816406 144.269531 198.90625 145.097656 L 201.683594 170.257812 C 201.753906 170.890625 201.417969 171.5 200.847656 171.777344 L 180.484375 181.707031 C 180.273438 181.808594 180.046875 181.859375 179.828125 181.859375 Z M 179.828125 181.855469 " fill-opacity="1" fill-rule="nonzero"/></g></svg>