<svg xmlns="http://www.w3.org/2000/svg" xmlns:xlink="http://www.w3.org/1999/xlink" width="630" zoomAndPan="magnify" viewBox="0 0 473.03998 330" height="430" preserveAspectRatio="xMidYMid meet" version="1.0"><defs><clipPath id="4193d8e139"><path d="M 148.785156 98 L 322 98 L 322 225.625 L 148.785156 225.625 Z M 148.785156 98 " clip-rule="nonzero"/></clipPath></defs><g clip-path="url(#4193d8e139)"><path fill="#ffffff" d="M 319.882812 157.558594 L 262.171875 99.847656 C 259.917969 97.59375 256.265625 97.59375 254.011719 99.847656 C 251.757812 102.101562 251.757812 105.753906 254.011719 108.007812 L 301.867188 155.863281 L 154.214844 155.828125 C 151.03125 155.828125 148.445312 158.40625 148.445312 161.597656 C 148.445312 164.78125 151.023438 167.367188 154.214844 167.367188 L 301.875 167.40625 L 254.011719 215.269531 C 251.757812 217.523438 251.757812 221.175781 254.011719 223.429688 C 255.136719 224.558594 256.613281 225.125 258.085938 225.125 C 259.5625 225.125 261.039062 224.558594 262.164062 223.429688 L 319.875 165.71875 C 322.136719 163.457031 322.136719 159.8125 319.882812 157.558594 Z M 319.882812 157.558594 " fill-opacity="1" fill-rule="nonzero"/></g></svg>