<svg xmlns="http://www.w3.org/2000/svg" xmlns:xlink="http://www.w3.org/1999/xlink" width="630" zoomAndPan="magnify" viewBox="0 0 473.03998 330" height="430" preserveAspectRatio="xMidYMid meet" version="1.0"><defs><clipPath id="f9ac28236a"><path d="M 149.101562 97 L 322.75 97 L 322.75 225 L 149.101562 225 Z M 149.101562 97 " clip-rule="nonzero"/></clipPath></defs><g clip-path="url(#f9ac28236a)"><path fill="#ffffff" d="M 151.652344 164.957031 L 209.363281 222.667969 C 211.617188 224.921875 215.269531 224.921875 217.523438 222.667969 C 219.777344 220.414062 219.777344 216.757812 217.523438 214.503906 L 169.667969 166.652344 L 317.320312 166.6875 C 320.503906 166.6875 323.089844 164.109375 323.089844 160.917969 C 323.089844 157.734375 320.511719 155.144531 317.320312 155.144531 L 169.660156 155.109375 L 217.523438 107.246094 C 219.777344 104.992188 219.777344 101.339844 217.523438 99.085938 C 216.398438 97.957031 214.921875 97.390625 213.449219 97.390625 C 211.972656 97.390625 210.496094 97.957031 209.371094 99.085938 L 151.660156 156.796875 C 149.398438 159.054688 149.398438 162.703125 151.652344 164.957031 Z M 151.652344 164.957031 " fill-opacity="1" fill-rule="nonzero"/></g></svg>