<svg xmlns="http://www.w3.org/2000/svg" xmlns:xlink="http://www.w3.org/1999/xlink" width="630" zoomAndPan="magnify" viewBox="0 0 472.5 322.499991" height="430" preserveAspectRatio="xMidYMid meet" version="1.0"><defs><clipPath id="13daaad8df"><path d="M 155 96.601562 L 317 96.601562 L 317 225.402344 L 155 225.402344 Z M 155 96.601562 " clip-rule="nonzero"/></clipPath></defs><g clip-path="url(#13daaad8df)"><path fill="#ffffff" d="M 309.40625 114.507812 C 308.882812 114.421875 308.355469 114.378906 307.824219 114.386719 C 307.292969 114.390625 306.765625 114.445312 306.246094 114.542969 C 305.722656 114.644531 305.214844 114.789062 304.71875 114.976562 C 304.222656 115.167969 303.746094 115.398438 303.292969 115.671875 C 302.835938 115.945312 302.410156 116.257812 302.011719 116.609375 C 301.609375 116.957031 301.246094 117.339844 300.914062 117.753906 C 300.582031 118.167969 300.289062 118.609375 300.035156 119.078125 C 299.78125 119.542969 299.570312 120.027344 299.402344 120.53125 L 294.804688 135.292969 C 292.714844 133.871094 290.449219 132.839844 288.003906 132.203125 C 288.460938 131.847656 288.898438 131.472656 289.316406 131.074219 C 289.738281 130.675781 290.132812 130.253906 290.511719 129.816406 C 290.886719 129.375 291.238281 128.917969 291.566406 128.441406 C 291.894531 127.964844 292.199219 127.472656 292.472656 126.964844 C 292.75 126.457031 293.003906 125.933594 293.226562 125.402344 C 293.449219 124.867188 293.644531 124.324219 293.8125 123.769531 C 293.976562 123.214844 294.117188 122.65625 294.222656 122.085938 C 294.332031 121.519531 294.410156 120.945312 294.460938 120.371094 C 294.511719 119.792969 294.53125 119.214844 294.519531 118.636719 C 294.507812 118.058594 294.46875 117.480469 294.398438 116.90625 C 294.328125 116.332031 294.230469 115.765625 294.101562 115.199219 C 293.972656 114.636719 293.8125 114.082031 293.628906 113.53125 C 293.441406 112.984375 293.226562 112.449219 292.984375 111.921875 C 292.742188 111.398438 292.472656 110.886719 292.175781 110.386719 C 291.882812 109.890625 291.5625 109.410156 291.214844 108.945312 C 290.871094 108.480469 290.503906 108.035156 290.113281 107.609375 C 289.722656 107.183594 289.308594 106.777344 288.875 106.394531 C 288.441406 106.011719 287.992188 105.652344 287.519531 105.3125 C 287.050781 104.976562 286.5625 104.664062 286.058594 104.378906 C 285.558594 104.09375 285.039062 103.832031 284.511719 103.601562 C 283.980469 103.367188 283.441406 103.164062 282.890625 102.988281 C 282.339844 102.808594 281.78125 102.660156 281.214844 102.542969 C 280.648438 102.425781 280.078125 102.335938 279.5 102.273438 C 278.925781 102.214844 278.347656 102.183594 277.769531 102.183594 C 277.191406 102.183594 276.613281 102.214844 276.039062 102.273438 C 275.464844 102.335938 274.894531 102.425781 274.328125 102.542969 C 273.761719 102.660156 273.203125 102.808594 272.652344 102.988281 C 272.101562 103.164062 271.558594 103.367188 271.03125 103.601562 C 270.5 103.832031 269.984375 104.09375 269.480469 104.378906 C 268.980469 104.664062 268.492188 104.976562 268.023438 105.3125 C 267.550781 105.652344 267.097656 106.011719 266.664062 106.394531 C 266.234375 106.777344 265.820312 107.183594 265.429688 107.609375 C 265.039062 108.035156 264.667969 108.480469 264.324219 108.945312 C 263.980469 109.410156 263.660156 109.890625 263.363281 110.386719 C 263.070312 110.886719 262.800781 111.398438 262.558594 111.921875 C 262.316406 112.449219 262.101562 112.984375 261.914062 113.53125 C 261.726562 114.082031 261.570312 114.636719 261.441406 115.199219 C 261.3125 115.765625 261.210938 116.332031 261.140625 116.90625 C 261.070312 117.480469 261.03125 118.058594 261.019531 118.636719 C 261.011719 119.214844 261.03125 119.792969 261.078125 120.371094 C 261.128906 120.945312 261.207031 121.519531 261.316406 122.085938 C 261.425781 122.65625 261.5625 123.214844 261.730469 123.769531 C 261.898438 124.324219 262.09375 124.867188 262.316406 125.402344 C 262.539062 125.933594 262.789062 126.457031 263.066406 126.964844 C 263.34375 127.472656 263.648438 127.964844 263.976562 128.441406 C 264.304688 128.917969 264.65625 129.375 265.03125 129.816406 C 265.40625 130.253906 265.804688 130.675781 266.222656 131.074219 C 266.640625 131.472656 267.082031 131.847656 267.539062 132.203125 C 264.75 132.910156 262.214844 134.136719 259.929688 135.886719 C 258.398438 134.859375 256.753906 134.085938 254.988281 133.5625 C 253.222656 133.039062 251.417969 132.792969 249.578125 132.820312 L 247.828125 132.820312 C 248.394531 132.40625 248.9375 131.964844 249.460938 131.492188 C 249.980469 131.019531 250.472656 130.523438 250.941406 130 C 251.410156 129.476562 251.851562 128.933594 252.261719 128.363281 C 252.671875 127.792969 253.050781 127.207031 253.402344 126.597656 C 253.75 125.988281 254.066406 125.363281 254.351562 124.722656 C 254.636719 124.078125 254.886719 123.425781 255.101562 122.757812 C 255.316406 122.089844 255.496094 121.410156 255.640625 120.722656 C 255.785156 120.035156 255.894531 119.34375 255.964844 118.644531 C 256.035156 117.949219 256.070312 117.246094 256.070312 116.546875 C 256.070312 115.84375 256.03125 115.144531 255.957031 114.445312 C 255.882812 113.75 255.773438 113.054688 255.625 112.371094 C 255.476562 111.683594 255.296875 111.007812 255.078125 110.339844 C 254.859375 109.671875 254.605469 109.019531 254.320312 108.378906 C 254.035156 107.738281 253.714844 107.113281 253.363281 106.503906 C 253.011719 105.898438 252.628906 105.3125 252.214844 104.742188 C 251.804688 104.175781 251.359375 103.632812 250.890625 103.109375 C 250.421875 102.589844 249.925781 102.09375 249.402344 101.625 C 248.878906 101.15625 248.335938 100.714844 247.765625 100.304688 C 247.199219 99.890625 246.609375 99.511719 246.003906 99.160156 C 245.394531 98.808594 244.769531 98.492188 244.128906 98.207031 C 243.488281 97.921875 242.832031 97.667969 242.164062 97.453125 C 241.5 97.238281 240.820312 97.054688 240.132812 96.910156 C 239.449219 96.765625 238.753906 96.652344 238.058594 96.582031 C 237.359375 96.507812 236.660156 96.472656 235.957031 96.472656 C 235.253906 96.472656 234.554688 96.507812 233.859375 96.582031 C 233.160156 96.652344 232.46875 96.765625 231.78125 96.910156 C 231.09375 97.054688 230.417969 97.238281 229.75 97.453125 C 229.082031 97.667969 228.425781 97.921875 227.785156 98.207031 C 227.144531 98.492188 226.519531 98.808594 225.910156 99.160156 C 225.304688 99.511719 224.714844 99.890625 224.148438 100.304688 C 223.578125 100.714844 223.035156 101.15625 222.511719 101.625 C 221.992188 102.09375 221.496094 102.589844 221.023438 103.109375 C 220.554688 103.632812 220.113281 104.175781 219.699219 104.742188 C 219.285156 105.3125 218.902344 105.898438 218.550781 106.503906 C 218.199219 107.113281 217.882812 107.738281 217.59375 108.378906 C 217.308594 109.019531 217.054688 109.671875 216.839844 110.339844 C 216.621094 111.007812 216.4375 111.683594 216.289062 112.371094 C 216.144531 113.054688 216.03125 113.75 215.957031 114.445312 C 215.882812 115.144531 215.847656 115.84375 215.84375 116.546875 C 215.84375 117.246094 215.878906 117.949219 215.949219 118.644531 C 216.023438 119.34375 216.128906 120.035156 216.273438 120.722656 C 216.417969 121.410156 216.597656 122.089844 216.816406 122.757812 C 217.03125 123.425781 217.28125 124.078125 217.5625 124.722656 C 217.847656 125.363281 218.164062 125.988281 218.511719 126.597656 C 218.863281 127.207031 219.242188 127.792969 219.652344 128.363281 C 220.066406 128.933594 220.503906 129.476562 220.972656 130 C 221.441406 130.523438 221.933594 131.019531 222.457031 131.492188 C 222.976562 131.964844 223.519531 132.40625 224.085938 132.820312 L 222.339844 132.820312 C 220.523438 132.816406 218.75 133.078125 217.011719 133.605469 C 215.277344 134.132812 213.652344 134.902344 212.148438 135.914062 C 209.894531 134.214844 207.402344 133.011719 204.671875 132.308594 C 205.132812 131.957031 205.570312 131.578125 205.992188 131.179688 C 206.414062 130.78125 206.8125 130.359375 207.1875 129.921875 C 207.566406 129.480469 207.917969 129.019531 208.246094 128.542969 C 208.578125 128.066406 208.882812 127.574219 209.160156 127.066406 C 209.4375 126.558594 209.6875 126.035156 209.914062 125.5 C 210.136719 124.964844 210.332031 124.421875 210.5 123.867188 C 210.667969 123.3125 210.808594 122.75 210.917969 122.179688 C 211.027344 121.609375 211.105469 121.035156 211.15625 120.457031 C 211.207031 119.882812 211.226562 119.300781 211.21875 118.722656 C 211.207031 118.144531 211.167969 117.566406 211.097656 116.988281 C 211.027344 116.414062 210.929688 115.84375 210.800781 115.277344 C 210.671875 114.714844 210.511719 114.15625 210.324219 113.605469 C 210.140625 113.058594 209.925781 112.519531 209.683594 111.992188 C 209.4375 111.46875 209.171875 110.953125 208.875 110.457031 C 208.578125 109.957031 208.257812 109.476562 207.914062 109.007812 C 207.566406 108.542969 207.199219 108.097656 206.804688 107.667969 C 206.414062 107.242188 206 106.835938 205.566406 106.453125 C 205.132812 106.066406 204.679688 105.707031 204.210938 105.367188 C 203.738281 105.03125 203.25 104.71875 202.746094 104.433594 C 202.242188 104.144531 201.726562 103.882812 201.195312 103.652344 C 200.664062 103.417969 200.121094 103.210938 199.570312 103.035156 C 199.019531 102.859375 198.457031 102.710938 197.890625 102.589844 C 197.324219 102.472656 196.75 102.382812 196.175781 102.320312 C 195.597656 102.261719 195.019531 102.230469 194.441406 102.230469 C 193.859375 102.230469 193.28125 102.261719 192.707031 102.320312 C 192.128906 102.382812 191.558594 102.472656 190.988281 102.589844 C 190.421875 102.710938 189.863281 102.859375 189.308594 103.035156 C 188.757812 103.210938 188.214844 103.417969 187.6875 103.652344 C 187.15625 103.882812 186.636719 104.144531 186.132812 104.433594 C 185.628906 104.71875 185.144531 105.03125 184.671875 105.367188 C 184.199219 105.707031 183.746094 106.066406 183.3125 106.453125 C 182.878906 106.835938 182.464844 107.242188 182.074219 107.667969 C 181.683594 108.097656 181.3125 108.542969 180.96875 109.007812 C 180.621094 109.476562 180.300781 109.957031 180.007812 110.457031 C 179.710938 110.953125 179.441406 111.46875 179.199219 111.992188 C 178.957031 112.519531 178.742188 113.058594 178.554688 113.605469 C 178.367188 114.15625 178.210938 114.714844 178.082031 115.277344 C 177.953125 115.84375 177.851562 116.414062 177.785156 116.988281 C 177.714844 117.566406 177.671875 118.144531 177.664062 118.722656 C 177.652344 119.300781 177.675781 119.882812 177.722656 120.457031 C 177.773438 121.035156 177.855469 121.609375 177.964844 122.179688 C 178.074219 122.75 178.210938 123.3125 178.378906 123.867188 C 178.546875 124.421875 178.742188 124.964844 178.96875 125.5 C 179.191406 126.035156 179.441406 126.558594 179.722656 127.066406 C 180 127.574219 180.304688 128.066406 180.632812 128.542969 C 180.960938 129.019531 181.316406 129.480469 181.691406 129.921875 C 182.070312 130.359375 182.46875 130.78125 182.890625 131.179688 C 183.308594 131.578125 183.75 131.957031 184.207031 132.308594 C 181.761719 132.949219 179.496094 133.980469 177.40625 135.402344 L 172.863281 120.53125 C 172.722656 119.960938 172.53125 119.410156 172.285156 118.875 C 172.039062 118.34375 171.742188 117.839844 171.394531 117.363281 C 171.050781 116.890625 170.660156 116.453125 170.230469 116.054688 C 169.796875 115.65625 169.332031 115.304688 168.832031 114.996094 C 168.328125 114.691406 167.800781 114.4375 167.25 114.234375 C 166.699219 114.03125 166.132812 113.882812 165.554688 113.792969 C 164.972656 113.703125 164.390625 113.667969 163.804688 113.691406 C 163.214844 113.714844 162.636719 113.796875 162.066406 113.933594 C 161.496094 114.070312 160.941406 114.261719 160.410156 114.507812 C 159.875 114.757812 159.371094 115.050781 158.898438 115.398438 C 158.421875 115.742188 157.984375 116.132812 157.585938 116.5625 C 157.1875 116.996094 156.835938 117.460938 156.53125 117.964844 C 156.222656 118.464844 155.96875 118.992188 155.765625 119.542969 C 155.5625 120.09375 155.417969 120.660156 155.324219 121.238281 C 155.234375 121.820312 155.199219 122.402344 155.222656 122.988281 C 155.246094 123.578125 155.328125 124.15625 155.464844 124.726562 L 161.109375 158.175781 C 161.550781 160.898438 162.410156 163.480469 163.691406 165.921875 C 164.96875 168.363281 166.601562 170.542969 168.585938 172.457031 L 190.421875 193.617188 C 192.0625 195.21875 193.457031 197.011719 194.605469 199 C 195.75 200.984375 196.605469 203.089844 197.167969 205.3125 C 196.515625 205.648438 195.921875 206.066406 195.382812 206.5625 C 194.84375 207.058594 194.382812 207.617188 193.996094 208.242188 C 193.609375 208.863281 193.3125 209.527344 193.109375 210.230469 C 192.902344 210.933594 192.796875 211.652344 192.785156 212.386719 L 192.785156 217.332031 C 192.785156 217.863281 192.839844 218.386719 192.941406 218.90625 C 193.046875 219.425781 193.199219 219.929688 193.402344 220.421875 C 193.601562 220.910156 193.851562 221.375 194.144531 221.816406 C 194.441406 222.253906 194.773438 222.664062 195.148438 223.039062 C 195.523438 223.414062 195.929688 223.746094 196.371094 224.039062 C 196.8125 224.335938 197.277344 224.582031 197.765625 224.785156 C 198.253906 224.988281 198.761719 225.140625 199.28125 225.246094 C 199.800781 225.347656 200.324219 225.402344 200.851562 225.402344 L 229.894531 225.402344 C 231.15625 225.34375 232.335938 225.007812 233.433594 224.386719 C 234.535156 223.765625 235.433594 222.929688 236.132812 221.878906 C 236.871094 222.910156 237.804688 223.71875 238.933594 224.304688 C 240.0625 224.886719 241.261719 225.179688 242.53125 225.183594 L 271.574219 225.183594 C 272.101562 225.183594 272.625 225.132812 273.144531 225.03125 C 273.664062 224.925781 274.171875 224.773438 274.660156 224.570312 C 275.148438 224.367188 275.613281 224.121094 276.054688 223.824219 C 276.496094 223.53125 276.902344 223.195312 277.277344 222.824219 C 277.652344 222.449219 277.984375 222.039062 278.28125 221.601562 C 278.574219 221.160156 278.824219 220.695312 279.027344 220.207031 C 279.226562 219.714844 279.382812 219.210938 279.484375 218.691406 C 279.585938 218.171875 279.640625 217.648438 279.640625 217.117188 L 279.640625 212.386719 C 279.628906 211.652344 279.523438 210.933594 279.316406 210.230469 C 279.113281 209.527344 278.816406 208.863281 278.429688 208.242188 C 278.042969 207.617188 277.582031 207.058594 277.042969 206.5625 C 276.503906 206.066406 275.910156 205.648438 275.257812 205.3125 C 275.796875 203.097656 276.625 201 277.746094 199.011719 C 278.863281 197.027344 280.230469 195.226562 281.84375 193.617188 L 303.652344 172.375 C 305.628906 170.472656 307.261719 168.304688 308.542969 165.878906 C 309.828125 163.453125 310.695312 160.882812 311.152344 158.175781 L 316.800781 124.726562 C 316.890625 124.148438 316.925781 123.566406 316.902344 122.984375 C 316.878906 122.398438 316.796875 121.820312 316.660156 121.253906 C 316.523438 120.683594 316.332031 120.132812 316.089844 119.601562 C 315.84375 119.070312 315.550781 118.570312 315.207031 118.09375 C 314.863281 117.621094 314.480469 117.183594 314.050781 116.785156 C 313.621094 116.386719 313.160156 116.035156 312.660156 115.726562 C 312.164062 115.421875 311.640625 115.164062 311.09375 114.957031 C 310.546875 114.753906 309.984375 114.601562 309.40625 114.507812 Z M 221.289062 116.632812 C 221.285156 115.664062 221.375 114.707031 221.558594 113.757812 C 221.738281 112.808594 222.015625 111.886719 222.378906 110.988281 C 222.746094 110.09375 223.195312 109.242188 223.726562 108.4375 C 224.257812 107.628906 224.867188 106.882812 225.546875 106.191406 C 226.226562 105.503906 226.964844 104.890625 227.765625 104.347656 C 228.566406 103.804688 229.414062 103.347656 230.304688 102.972656 C 231.195312 102.597656 232.117188 102.3125 233.0625 102.117188 C 234.011719 101.921875 234.96875 101.824219 235.933594 101.816406 C 236.902344 101.8125 237.859375 101.898438 238.808594 102.082031 C 239.761719 102.265625 240.683594 102.539062 241.578125 102.902344 C 242.472656 103.269531 243.328125 103.71875 244.132812 104.25 C 244.941406 104.78125 245.6875 105.386719 246.378906 106.066406 C 247.066406 106.746094 247.679688 107.488281 248.222656 108.285156 C 248.765625 109.085938 249.226562 109.933594 249.601562 110.824219 C 249.976562 111.714844 250.261719 112.636719 250.457031 113.582031 C 250.652344 114.53125 250.753906 115.488281 250.757812 116.453125 C 250.765625 117.421875 250.679688 118.378906 250.496094 119.328125 C 250.3125 120.277344 250.039062 121.203125 249.675781 122.097656 C 249.3125 122.996094 248.863281 123.847656 248.332031 124.652344 C 247.800781 125.460938 247.195312 126.210938 246.515625 126.898438 C 245.835938 127.585938 245.097656 128.203125 244.296875 128.746094 C 243.496094 129.289062 242.652344 129.75 241.761719 130.125 C 240.871094 130.503906 239.949219 130.789062 239.003906 130.984375 C 238.058594 131.179688 237.097656 131.28125 236.132812 131.289062 C 235.164062 131.292969 234.203125 131.203125 233.253906 131.019531 C 232.304688 130.835938 231.378906 130.5625 230.484375 130.199219 C 229.585938 129.832031 228.734375 129.382812 227.925781 128.851562 C 227.117188 128.316406 226.367188 127.710938 225.679688 127.03125 C 224.992188 126.351562 224.375 125.609375 223.832031 124.808594 C 223.289062 124.007812 222.828125 123.160156 222.453125 122.269531 C 222.074219 121.375 221.789062 120.457031 221.59375 119.507812 C 221.398438 118.558594 221.296875 117.601562 221.289062 116.632812 Z M 285.609375 152.585938 C 284.894531 151.929688 284.09375 151.398438 283.214844 150.988281 C 282.332031 150.582031 281.410156 150.316406 280.449219 150.195312 C 279.484375 150.070312 278.527344 150.097656 277.570312 150.269531 C 276.617188 150.445312 275.710938 150.757812 274.851562 151.210938 C 272.476562 152.871094 270.210938 154.664062 268.050781 156.589844 L 268.050781 151.210938 C 268.050781 149.136719 267.707031 147.117188 267.019531 145.15625 C 266.332031 143.199219 265.339844 141.40625 264.042969 139.785156 C 265.371094 138.90625 266.796875 138.234375 268.320312 137.777344 C 269.847656 137.320312 271.40625 137.09375 272.996094 137.09375 L 282.703125 137.09375 C 284.628906 137.09375 286.492188 137.429688 288.292969 138.09375 C 290.097656 138.761719 291.730469 139.71875 293.191406 140.96875 L 292.628906 142.796875 C 291.96875 144.738281 291.042969 146.546875 289.847656 148.210938 C 288.652344 149.878906 287.238281 151.335938 285.609375 152.585938 Z M 277.757812 107.652344 C 278.507812 107.648438 279.25 107.722656 279.984375 107.867188 C 280.71875 108.011719 281.433594 108.226562 282.125 108.511719 C 282.816406 108.796875 283.476562 109.144531 284.097656 109.558594 C 284.722656 109.976562 285.300781 110.445312 285.828125 110.976562 C 286.359375 111.503906 286.835938 112.078125 287.25 112.699219 C 287.667969 113.324219 288.023438 113.980469 288.308594 114.671875 C 288.597656 115.363281 288.816406 116.074219 288.960938 116.808594 C 289.109375 117.542969 289.183594 118.285156 289.183594 119.035156 C 289.1875 119.785156 289.113281 120.527344 288.96875 121.261719 C 288.824219 121.996094 288.609375 122.710938 288.324219 123.402344 C 288.039062 124.09375 287.6875 124.75 287.273438 125.375 C 286.855469 126 286.382812 126.574219 285.855469 127.105469 C 285.328125 127.636719 284.75 128.109375 284.128906 128.527344 C 283.507812 128.941406 282.847656 129.292969 282.15625 129.582031 C 281.464844 129.867188 280.753906 130.085938 280.019531 130.234375 C 279.285156 130.378906 278.542969 130.453125 277.792969 130.453125 C 277.042969 130.453125 276.300781 130.382812 275.566406 130.238281 C 274.832031 130.089844 274.121094 129.875 273.425781 129.589844 C 272.734375 129.300781 272.078125 128.953125 271.453125 128.535156 C 270.832031 128.121094 270.253906 127.648438 269.726562 127.117188 C 269.195312 126.589844 268.722656 126.011719 268.304688 125.390625 C 267.890625 124.765625 267.539062 124.109375 267.25 123.417969 C 266.964844 122.726562 266.75 122.011719 266.601562 121.277344 C 266.457031 120.542969 266.382812 119.800781 266.382812 119.054688 C 266.382812 118.304688 266.457031 117.566406 266.601562 116.832031 C 266.746094 116.097656 266.960938 115.386719 267.25 114.695312 C 267.535156 114.003906 267.882812 113.347656 268.300781 112.726562 C 268.714844 112.105469 269.183594 111.53125 269.710938 111 C 270.242188 110.472656 270.816406 110 271.4375 109.582031 C 272.058594 109.167969 272.710938 108.816406 273.402344 108.527344 C 274.09375 108.238281 274.804688 108.023438 275.535156 107.875 C 276.269531 107.726562 277.007812 107.652344 277.757812 107.652344 Z M 249.578125 138.199219 C 250.425781 138.199219 251.269531 138.285156 252.105469 138.453125 C 252.9375 138.617188 253.746094 138.867188 254.53125 139.191406 C 255.316406 139.519531 256.0625 139.917969 256.769531 140.390625 C 257.476562 140.863281 258.132812 141.402344 258.734375 142.003906 C 259.335938 142.601562 259.871094 143.257812 260.34375 143.964844 C 260.816406 144.671875 261.21875 145.417969 261.542969 146.203125 C 261.871094 146.988281 262.117188 147.796875 262.285156 148.632812 C 262.453125 149.464844 262.535156 150.308594 262.539062 151.160156 L 262.539062 161.136719 L 255.0625 167.667969 L 252.75 149.089844 C 252.707031 148.730469 252.597656 148.398438 252.421875 148.082031 C 252.246094 147.769531 252.015625 147.503906 251.734375 147.28125 C 251.453125 147.058594 251.136719 146.898438 250.792969 146.804688 C 250.445312 146.707031 250.09375 146.679688 249.738281 146.722656 C 249.382812 146.765625 249.046875 146.875 248.734375 147.050781 C 248.421875 147.226562 248.152344 147.457031 247.929688 147.738281 C 247.710938 148.019531 247.550781 148.335938 247.453125 148.679688 C 247.355469 149.027344 247.328125 149.378906 247.371094 149.734375 L 249.683594 168.554688 L 222.148438 168.554688 L 224.460938 149.734375 C 224.503906 149.378906 224.476562 149.027344 224.382812 148.679688 C 224.285156 148.335938 224.125 148.019531 223.902344 147.738281 C 223.679688 147.457031 223.414062 147.226562 223.101562 147.050781 C 222.789062 146.875 222.453125 146.765625 222.097656 146.722656 C 221.738281 146.679688 221.386719 146.707031 221.042969 146.804688 C 220.695312 146.898438 220.382812 147.058594 220.101562 147.28125 C 219.816406 147.503906 219.589844 147.769531 219.414062 148.082031 C 219.238281 148.398438 219.128906 148.730469 219.085938 149.089844 L 216.800781 167.398438 C 214.109375 164.980469 211.582031 162.800781 209.378906 160.917969 L 209.378906 151.160156 C 209.378906 150.308594 209.460938 149.464844 209.625 148.628906 C 209.792969 147.796875 210.039062 146.984375 210.363281 146.199219 C 210.691406 145.414062 211.089844 144.664062 211.5625 143.957031 C 212.035156 143.25 212.570312 142.597656 213.171875 141.996094 C 213.773438 141.390625 214.429688 140.855469 215.136719 140.382812 C 215.84375 139.910156 216.59375 139.511719 217.378906 139.183594 C 218.164062 138.859375 218.976562 138.613281 219.808594 138.445312 C 220.644531 138.28125 221.488281 138.199219 222.339844 138.199219 Z M 242.371094 189.019531 L 240.433594 204.777344 C 238.644531 205.257812 237.210938 206.253906 236.132812 207.761719 C 235.039062 206.242188 233.585938 205.246094 231.777344 204.777344 L 229.839844 189.019531 C 229.492188 186.242188 228.777344 183.5625 227.6875 180.980469 C 226.601562 178.402344 225.1875 176.015625 223.441406 173.828125 L 248.824219 173.828125 C 247.078125 176.015625 245.664062 178.402344 244.578125 180.980469 C 243.488281 183.5625 242.773438 186.242188 242.425781 189.019531 Z M 194.507812 107.652344 C 195.257812 107.652344 195.996094 107.726562 196.730469 107.871094 C 197.464844 108.015625 198.179688 108.234375 198.871094 108.519531 C 199.5625 108.804688 200.21875 109.15625 200.839844 109.574219 C 201.464844 109.988281 202.039062 110.460938 202.570312 110.992188 C 203.097656 111.519531 203.570312 112.097656 203.988281 112.71875 C 204.402344 113.339844 204.753906 114 205.039062 114.691406 C 205.328125 115.382812 205.542969 116.09375 205.691406 116.828125 C 205.835938 117.5625 205.910156 118.304688 205.910156 119.054688 C 205.910156 119.800781 205.835938 120.542969 205.691406 121.277344 C 205.542969 122.011719 205.328125 122.722656 205.039062 123.414062 C 204.753906 124.109375 204.402344 124.765625 203.988281 125.386719 C 203.570312 126.007812 203.097656 126.585938 202.570312 127.113281 C 202.039062 127.644531 201.464844 128.117188 200.839844 128.53125 C 200.21875 128.949219 199.5625 129.300781 198.871094 129.585938 C 198.179688 129.871094 197.464844 130.089844 196.730469 130.234375 C 195.996094 130.382812 195.257812 130.453125 194.507812 130.453125 C 193.757812 130.453125 193.015625 130.382812 192.285156 130.234375 C 191.550781 130.089844 190.835938 129.871094 190.144531 129.585938 C 189.453125 129.300781 188.796875 128.949219 188.171875 128.53125 C 187.550781 128.117188 186.976562 127.644531 186.445312 127.113281 C 185.917969 126.585938 185.445312 126.007812 185.027344 125.386719 C 184.613281 124.765625 184.261719 124.109375 183.972656 123.414062 C 183.6875 122.722656 183.472656 122.011719 183.324219 121.277344 C 183.179688 120.542969 183.105469 119.800781 183.105469 119.054688 C 183.105469 118.304688 183.179688 117.5625 183.324219 116.828125 C 183.472656 116.09375 183.6875 115.382812 183.972656 114.691406 C 184.261719 114 184.613281 113.339844 185.027344 112.71875 C 185.445312 112.097656 185.917969 111.519531 186.445312 110.992188 C 186.976562 110.460938 187.550781 109.988281 188.171875 109.574219 C 188.796875 109.15625 189.453125 108.804688 190.144531 108.519531 C 190.835938 108.234375 191.550781 108.015625 192.285156 107.871094 C 193.019531 107.726562 193.757812 107.652344 194.507812 107.652344 Z M 189.640625 136.960938 L 199.347656 136.960938 C 202.546875 136.984375 205.476562 137.882812 208.140625 139.648438 C 206.820312 141.28125 205.808594 143.085938 205.105469 145.066406 C 204.40625 147.046875 204.054688 149.085938 204.054688 151.1875 L 204.054688 156.347656 C 201.960938 154.523438 199.773438 152.820312 197.492188 151.238281 C 196.632812 150.785156 195.726562 150.472656 194.773438 150.296875 C 193.820312 150.125 192.859375 150.097656 191.898438 150.21875 C 190.933594 150.34375 190.011719 150.609375 189.132812 151.015625 C 188.25 151.425781 187.453125 151.957031 186.738281 152.609375 C 185.085938 151.347656 183.65625 149.867188 182.449219 148.171875 C 181.246094 146.472656 180.316406 144.636719 179.664062 142.660156 L 179.101562 140.832031 C 180.566406 139.578125 182.210938 138.617188 184.023438 137.949219 C 185.835938 137.285156 187.707031 136.953125 189.640625 136.960938 Z M 172.324219 168.503906 C 170.757812 166.984375 169.46875 165.261719 168.460938 163.332031 C 167.449219 161.398438 166.765625 159.359375 166.40625 157.207031 L 160.84375 123.867188 C 160.773438 123.429688 160.785156 122.992188 160.878906 122.558594 C 160.972656 122.125 161.144531 121.722656 161.390625 121.355469 C 161.636719 120.984375 161.941406 120.675781 162.304688 120.421875 C 162.667969 120.167969 163.066406 119.988281 163.496094 119.882812 C 163.929688 119.78125 164.363281 119.757812 164.804688 119.820312 C 165.242188 119.882812 165.65625 120.019531 166.042969 120.238281 C 166.429688 120.453125 166.765625 120.734375 167.046875 121.078125 C 167.328125 121.421875 167.535156 121.804688 167.671875 122.226562 L 174.527344 144.273438 C 175.359375 146.875 176.566406 149.285156 178.148438 151.507812 C 179.734375 153.730469 181.617188 155.65625 183.804688 157.289062 C 183.535156 158.96875 183.585938 160.640625 183.964844 162.300781 C 184.339844 163.960938 185.015625 165.488281 185.984375 166.890625 C 189.925781 173.226562 194.363281 179.195312 199.292969 184.796875 C 199.535156 185.0625 199.816406 185.269531 200.140625 185.421875 C 200.464844 185.570312 200.804688 185.65625 201.160156 185.671875 C 201.515625 185.6875 201.863281 185.636719 202.199219 185.515625 C 202.535156 185.394531 202.832031 185.210938 203.097656 184.972656 C 203.363281 184.730469 203.570312 184.449219 203.722656 184.125 C 203.871094 183.800781 203.957031 183.460938 203.972656 183.105469 C 203.988281 182.75 203.9375 182.402344 203.816406 182.066406 C 203.695312 181.730469 203.515625 181.429688 203.273438 181.167969 C 198.585938 175.8125 194.363281 170.109375 190.609375 164.066406 C 189.480469 162.238281 187.917969 158.847656 190.070312 156.699219 C 190.367188 156.402344 190.699219 156.152344 191.070312 155.953125 C 191.441406 155.757812 191.832031 155.617188 192.242188 155.535156 C 192.65625 155.453125 193.070312 155.433594 193.488281 155.476562 C 193.90625 155.519531 194.308594 155.621094 194.695312 155.785156 C 195.960938 156.5625 199.507812 159.46875 204.832031 164.039062 C 207.738281 166.539062 211.207031 169.578125 215.078125 173.019531 L 216.289062 174.070312 C 218.539062 176.082031 220.359375 178.429688 221.75 181.113281 C 223.136719 183.796875 224.007812 186.636719 224.355469 189.636719 L 226.183594 204.398438 L 202.492188 204.398438 C 201.820312 201.605469 200.777344 198.960938 199.359375 196.460938 C 197.941406 193.960938 196.210938 191.703125 194.15625 189.691406 Z M 232.289062 217.332031 C 232.289062 217.679688 232.222656 218.011719 232.097656 218.332031 C 231.96875 218.652344 231.785156 218.9375 231.546875 219.1875 C 231.308594 219.4375 231.035156 219.636719 230.71875 219.78125 C 230.40625 219.925781 230.078125 220.003906 229.734375 220.023438 L 200.691406 220.023438 C 200.347656 220.003906 200.019531 219.925781 199.703125 219.78125 C 199.390625 219.636719 199.113281 219.4375 198.878906 219.1875 C 198.640625 218.9375 198.457031 218.652344 198.328125 218.332031 C 198.199219 218.011719 198.136719 217.679688 198.136719 217.332031 L 198.136719 212.386719 C 198.140625 212.105469 198.1875 211.832031 198.28125 211.566406 C 198.375 211.300781 198.511719 211.058594 198.6875 210.839844 C 198.859375 210.621094 199.066406 210.4375 199.304688 210.285156 C 199.542969 210.136719 199.800781 210.03125 200.074219 209.964844 L 229.757812 209.964844 C 230.089844 209.984375 230.40625 210.0625 230.710938 210.199219 C 231.011719 210.335938 231.28125 210.523438 231.511719 210.757812 C 231.746094 210.996094 231.929688 211.265625 232.0625 211.566406 C 232.195312 211.871094 232.269531 212.1875 232.289062 212.519531 Z M 274.128906 217.332031 C 274.128906 217.691406 274.058594 218.035156 273.921875 218.363281 C 273.785156 218.691406 273.589844 218.984375 273.339844 219.234375 C 273.085938 219.488281 272.796875 219.679688 272.46875 219.816406 C 272.136719 219.953125 271.792969 220.023438 271.4375 220.023438 L 242.53125 220.023438 C 242.175781 220.023438 241.832031 219.953125 241.503906 219.816406 C 241.171875 219.679688 240.882812 219.488281 240.628906 219.234375 C 240.378906 218.984375 240.183594 218.691406 240.046875 218.363281 C 239.910156 218.035156 239.84375 217.691406 239.84375 217.332031 L 239.84375 212.386719 C 239.859375 212.054688 239.933594 211.738281 240.066406 211.433594 C 240.199219 211.128906 240.382812 210.859375 240.617188 210.625 C 240.851562 210.390625 241.117188 210.203125 241.421875 210.066406 C 241.722656 209.929688 242.039062 209.851562 242.371094 209.832031 L 272.109375 209.832031 C 272.382812 209.894531 272.640625 210 272.878906 210.152344 C 273.117188 210.300781 273.324219 210.484375 273.5 210.707031 C 273.675781 210.925781 273.808594 211.167969 273.902344 211.433594 C 273.996094 211.699219 274.042969 211.96875 274.046875 212.25 Z M 305.828125 157.207031 C 305.484375 159.359375 304.808594 161.402344 303.800781 163.332031 C 302.792969 165.265625 301.507812 166.988281 299.941406 168.503906 L 278.105469 189.746094 C 276.054688 191.757812 274.320312 194.011719 272.90625 196.511719 C 271.488281 199.011719 270.445312 201.660156 269.769531 204.453125 L 245.945312 204.453125 L 247.777344 189.691406 C 248.125 186.691406 248.992188 183.847656 250.382812 181.167969 C 251.769531 178.484375 253.589844 176.136719 255.84375 174.121094 L 257.050781 173.074219 C 268.078125 163.3125 275.5 156.941406 277.488281 155.8125 C 277.875 155.652344 278.273438 155.550781 278.6875 155.511719 C 279.105469 155.46875 279.515625 155.488281 279.925781 155.570312 C 280.335938 155.652344 280.722656 155.792969 281.089844 155.988281 C 281.460938 156.183594 281.792969 156.429688 282.085938 156.726562 C 284.238281 158.875 282.679688 162.265625 281.546875 164.09375 C 277.792969 170.140625 273.574219 175.839844 268.882812 181.195312 C 268.644531 181.464844 268.46875 181.773438 268.351562 182.113281 C 268.234375 182.457031 268.1875 182.804688 268.210938 183.167969 C 268.230469 183.527344 268.324219 183.871094 268.480469 184.195312 C 268.640625 184.519531 268.855469 184.800781 269.125 185.039062 C 269.398438 185.277344 269.703125 185.457031 270.046875 185.574219 C 270.386719 185.6875 270.738281 185.738281 271.097656 185.714844 C 271.460938 185.691406 271.800781 185.601562 272.125 185.441406 C 272.449219 185.28125 272.730469 185.066406 272.972656 184.796875 C 277.890625 179.183594 282.320312 173.207031 286.253906 166.863281 C 287.214844 165.464844 287.878906 163.9375 288.253906 162.285156 C 288.625 160.628906 288.675781 158.964844 288.40625 157.289062 C 290.597656 155.65625 292.484375 153.722656 294.066406 151.496094 C 295.652344 149.269531 296.855469 146.855469 297.683594 144.25 L 304.539062 122.226562 C 304.652344 121.867188 304.820312 121.539062 305.039062 121.234375 C 305.253906 120.929688 305.515625 120.664062 305.816406 120.441406 C 306.121094 120.21875 306.449219 120.050781 306.804688 119.933594 C 307.160156 119.8125 307.527344 119.753906 307.898438 119.753906 L 308.464844 119.753906 C 308.699219 119.78125 308.929688 119.835938 309.152344 119.914062 C 309.375 119.992188 309.585938 120.089844 309.789062 120.210938 C 309.992188 120.332031 310.183594 120.472656 310.355469 120.632812 C 310.53125 120.792969 310.6875 120.964844 310.824219 121.15625 C 310.964844 121.347656 311.082031 121.550781 311.179688 121.769531 C 311.273438 121.984375 311.347656 122.207031 311.402344 122.4375 C 311.453125 122.667969 311.480469 122.902344 311.484375 123.136719 C 311.488281 123.375 311.46875 123.605469 311.421875 123.839844 Z M 305.828125 157.207031 " fill-opacity="1" fill-rule="nonzero"/></g></svg>