<svg xmlns="http://www.w3.org/2000/svg" xmlns:xlink="http://www.w3.org/1999/xlink" width="630" zoomAndPan="magnify" viewBox="0 0 472.5 322.499991" height="430" preserveAspectRatio="xMidYMid meet" version="1.0"><defs><clipPath id="dadea58523"><path d="M 171.601562 114.441406 L 282.507812 114.441406 L 282.507812 225.398438 L 171.601562 225.398438 Z M 171.601562 114.441406 " clip-rule="nonzero"/></clipPath><clipPath id="91bcf2edb4"><path d="M 214.738281 96.601562 L 300.398438 96.601562 L 300.398438 182.34375 L 214.738281 182.34375 Z M 214.738281 96.601562 " clip-rule="nonzero"/></clipPath></defs><g clip-path="url(#dadea58523)"><path fill="#ffffff" d="M 258.699219 201.59375 C 241.261719 219.03125 212.894531 219.042969 195.441406 201.628906 C 178.140625 184.363281 177.945312 156.1875 195.019531 138.695312 C 208.953125 124.417969 230.101562 121.484375 247.003906 129.886719 C 247.683594 130.222656 248.5 130.09375 249.035156 129.558594 L 254.367188 124.226562 C 255.1875 123.402344 255 122.015625 253.984375 121.449219 C 245.839844 116.910156 236.632812 114.496094 227.050781 114.496094 C 212.242188 114.496094 198.316406 120.261719 187.84375 130.734375 C 177.367188 141.210938 171.601562 155.136719 171.601562 169.945312 C 171.601562 184.691406 177.316406 198.554688 187.695312 209.011719 C 197.863281 219.253906 211.671875 225.152344 226.101562 225.390625 C 241.558594 225.648438 256.117188 219.628906 266.878906 208.53125 C 276.910156 198.1875 282.523438 184.285156 282.503906 169.871094 C 282.492188 160.316406 280.074219 151.136719 275.546875 143.011719 C 274.980469 141.996094 273.597656 141.8125 272.773438 142.632812 L 267.441406 147.964844 C 266.90625 148.5 266.777344 149.316406 267.113281 149.996094 C 275.4375 166.742188 272.632812 187.65625 258.699219 201.59375 " fill-opacity="1" fill-rule="nonzero"/></g><path fill="#ffffff" d="M 203.476562 146.371094 C 190.59375 159.253906 190.476562 180.140625 203.125 193.167969 C 215.964844 206.390625 237.277344 206.648438 250.421875 193.730469 C 259.605469 184.703125 262.4375 171.652344 258.917969 160.144531 C 258.527344 158.875 256.929688 158.480469 255.992188 159.417969 L 249.980469 165.425781 C 249.589844 165.816406 249.410156 166.367188 249.484375 166.914062 C 250.378906 173.601562 248.296875 180.613281 243.238281 185.785156 C 234.507812 194.703125 220.058594 194.839844 211.164062 186.082031 C 202.210938 177.265625 202.171875 162.804688 211.039062 153.933594 C 216.226562 148.746094 223.328125 146.609375 230.089844 147.515625 C 230.636719 147.589844 231.183594 147.410156 231.574219 147.019531 L 237.582031 141.007812 C 238.519531 140.074219 238.125 138.472656 236.863281 138.085938 C 225.4375 134.589844 212.496094 137.351562 203.476562 146.371094 " fill-opacity="1" fill-rule="nonzero"/><g clip-path="url(#91bcf2edb4)"><path fill="#ffffff" d="M 280.9375 103.707031 L 270.109375 114.53125 C 268.585938 116.058594 267.753906 118.164062 267.824219 120.320312 C 267.910156 122.980469 266.878906 125.582031 264.996094 127.460938 L 232.078125 160.382812 C 230.578125 161.882812 228.558594 162.820312 226.386719 163.027344 C 224.761719 163.179688 223.292969 163.875 222.136719 165.03125 C 222.066406 165.097656 222 165.167969 221.933594 165.242188 C 219.496094 167.882812 219.5 172.023438 221.941406 174.660156 C 223.242188 176.066406 225.007812 176.863281 226.917969 176.898438 C 228.824219 176.933594 230.621094 176.214844 231.96875 174.863281 C 233.125 173.707031 233.816406 172.242188 233.972656 170.617188 C 234.179688 168.441406 235.121094 166.417969 236.617188 164.921875 L 269.535156 132 C 271.417969 130.121094 274.023438 129.089844 276.679688 129.175781 C 278.835938 129.242188 280.941406 128.414062 282.464844 126.890625 L 293.292969 116.0625 L 286.375 115.839844 C 283.539062 115.75 281.25 113.457031 281.160156 110.625 Z M 227.058594 182.25 C 226.976562 182.25 226.894531 182.25 226.8125 182.246094 C 223.4375 182.179688 220.3125 180.777344 218.015625 178.292969 C 213.691406 173.621094 213.6875 166.296875 218 161.617188 C 218.113281 161.492188 218.230469 161.367188 218.351562 161.25 C 220.371094 159.230469 223.046875 157.96875 225.882812 157.703125 C 226.816406 157.613281 227.671875 157.222656 228.296875 156.601562 L 261.214844 123.679688 C 262.054688 122.839844 262.515625 121.679688 262.476562 120.492188 C 262.359375 116.867188 263.761719 113.316406 266.328125 110.75 L 279.296875 97.785156 C 280.433594 96.644531 282.136719 96.292969 283.632812 96.882812 C 285.132812 97.476562 286.132812 98.898438 286.183594 100.507812 L 286.503906 110.453125 C 286.503906 110.476562 286.523438 110.492188 286.546875 110.496094 L 296.492188 110.816406 C 298.101562 110.867188 299.523438 111.867188 300.117188 113.363281 C 300.707031 114.863281 300.355469 116.566406 299.214844 117.703125 L 286.25 130.671875 C 283.683594 133.234375 280.128906 134.640625 276.507812 134.523438 C 275.320312 134.488281 274.160156 134.945312 273.320312 135.785156 L 240.398438 168.703125 C 239.777344 169.324219 239.386719 170.183594 239.296875 171.125 C 239.027344 173.960938 237.765625 176.632812 235.753906 178.648438 C 233.421875 180.976562 230.34375 182.25 227.058594 182.25 " fill-opacity="1" fill-rule="nonzero"/></g></svg>