<svg xmlns="http://www.w3.org/2000/svg" xmlns:xlink="http://www.w3.org/1999/xlink" width="630" zoomAndPan="magnify" viewBox="0 0 473.03998 330" height="430" preserveAspectRatio="xMidYMid meet" version="1.0"><path fill="#ffffff" d="M 235.460938 108.390625 C 199.484375 108.390625 166.375 124.789062 144.625 153.378906 C 141.230469 157.832031 141.230469 164.050781 144.621094 168.5 C 166.375 197.09375 199.484375 213.496094 235.460938 213.496094 C 271.4375 213.496094 304.546875 197.09375 326.296875 168.503906 C 329.6875 164.050781 329.6875 157.839844 326.300781 153.386719 C 304.546875 124.789062 271.4375 108.390625 235.460938 108.390625 Z M 316.390625 160.960938 C 297.011719 186.433594 267.511719 201.046875 235.460938 201.046875 C 203.410156 201.046875 173.910156 186.433594 154.527344 160.925781 C 173.910156 135.449219 203.410156 120.839844 235.460938 120.839844 C 267.511719 120.839844 297.011719 135.449219 316.390625 160.925781 C 316.390625 160.925781 316.390625 160.957031 316.390625 160.960938 Z M 316.390625 160.960938 " fill-opacity="1" fill-rule="nonzero"/><path fill="#ffffff" d="M 235.460938 124.5 C 215.367188 124.5 199.019531 140.847656 199.019531 160.941406 C 199.019531 181.035156 215.367188 197.382812 235.460938 197.382812 C 255.554688 197.382812 271.902344 181.035156 271.902344 160.941406 C 271.902344 140.847656 255.554688 124.5 235.460938 124.5 Z M 235.460938 184.933594 C 222.230469 184.933594 211.46875 174.171875 211.46875 160.941406 C 211.46875 147.714844 222.230469 136.953125 235.460938 136.953125 C 248.6875 136.953125 259.453125 147.714844 259.453125 160.941406 C 259.453125 174.171875 248.6875 184.933594 235.460938 184.933594 Z M 235.460938 184.933594 " fill-opacity="1" fill-rule="nonzero"/></svg>